<svg width="16" height="16" viewBox="0 0 16 16" fill="none" xmlns="http://www.w3.org/2000/svg">
<path d="M13.9303 7.86035C13.3584 8.34879 12.6311 8.61719 11.879 8.61728C11.8236 8.61728 11.7723 8.61728 11.721 8.61728C12.1576 9.26291 12.3905 10.0246 12.3898 10.8039V13.1465H15.6923V10.8039C15.6924 10.1998 15.5285 9.60696 15.2182 9.08859C14.9079 8.57021 14.4628 8.14573 13.9303 7.86035Z" fill="#2A9D8F"/>
<path d="M10.4615 7.43602C10.4287 7.47705 10.3979 7.51397 10.3631 7.5509C10.8022 7.86891 11.3307 8.0398 11.8728 8.0391C12.2193 8.04885 12.5642 7.98902 12.8872 7.86316C13.2102 7.73729 13.5047 7.54795 13.7532 7.30631C14.0017 7.06468 14.1993 6.77566 14.3342 6.45636C14.4691 6.13705 14.5386 5.79394 14.5386 5.44731C14.5386 5.10068 14.4691 4.75757 14.3342 4.43826C14.1993 4.11896 14.0017 3.82994 13.7532 3.58831C13.5047 3.34667 13.2102 3.15733 12.8872 3.03146C12.5642 2.9056 12.2193 2.84577 11.8728 2.85552C11.3307 2.8551 10.8023 3.02596 10.3631 3.34372C10.8649 3.90401 11.1505 4.62489 11.1686 5.37685C11.1866 6.12881 10.9359 6.86256 10.4615 7.44628V7.43602Z" fill="#2A9D8F"/>
<path d="M4.12101 8.61532C3.36895 8.61524 2.64159 8.34684 2.06973 7.8584C1.53692 8.14394 1.09161 8.56875 0.781292 9.08751C0.470972 9.60628 0.307282 10.1995 0.307679 10.804V13.1466H3.61024V10.804C3.60909 10.024 3.84204 9.26154 4.27896 8.61532C4.22768 8.61532 4.17639 8.61532 4.12101 8.61532Z" fill="#2A9D8F"/>
<path d="M4.12102 8.03913C4.66319 8.03984 5.19167 7.86894 5.63077 7.55093C5.59589 7.51401 5.56513 7.47708 5.5323 7.43606C5.06066 6.8531 4.81161 6.12146 4.82965 5.37182C4.84769 4.62218 5.13163 3.90336 5.63077 3.34376C5.24378 3.0657 4.78761 2.89975 4.31241 2.86417C3.83722 2.82859 3.36142 2.92475 2.93734 3.14209C2.51327 3.35943 2.15735 3.68952 1.90874 4.09605C1.66013 4.50258 1.52845 4.9698 1.5282 5.44632C1.52928 6.13364 1.8028 6.79251 2.28882 7.27852C2.77483 7.76453 3.4337 8.03805 4.12102 8.03913Z" fill="#2A9D8F"/>
<path d="M10.0513 7.8584C9.47939 8.34673 8.75203 8.61501 8.00001 8.61501C7.24799 8.61501 6.52063 8.34673 5.94873 7.8584C5.41681 8.14447 4.97218 8.56911 4.66198 9.08733C4.35177 9.60554 4.18754 10.198 4.18668 10.802V13.1446H11.8133V10.802C11.8125 10.198 11.6482 9.60554 11.338 9.08733C11.0278 8.56911 10.5832 8.14447 10.0513 7.8584Z" fill="#2A9D8F"/>
<path d="M7.99999 8.03916C8.51262 8.03876 9.01363 7.8864 9.4397 7.60134C9.86577 7.31628 10.1978 6.91132 10.3938 6.43762C10.5898 5.96393 10.6409 5.44277 10.5408 4.94C10.4407 4.43724 10.1938 3.97543 9.83133 3.61294C9.46884 3.25045 9.00703 3.00355 8.50427 2.90344C8.0015 2.80333 7.48035 2.8545 7.00665 3.05049C6.53296 3.24648 6.128 3.57849 5.84294 4.00457C5.55789 4.43064 5.40553 4.93165 5.40512 5.44429C5.40621 6.13216 5.67994 6.79155 6.16634 7.27794C6.65273 7.76434 7.31212 8.03808 7.99999 8.03916Z" fill="#2A9D8F"/>
</svg>
