<svg width="40" height="40" viewBox="0 0 40 40" fill="none" xmlns="http://www.w3.org/2000/svg">
<path d="M20 40C19.482 40 18.9852 39.7942 18.6189 39.4279C18.2526 39.0617 18.0469 38.5649 18.0469 38.0469V1.95312C18.0469 1.43512 18.2526 0.938339 18.6189 0.572057C18.9852 0.205775 19.482 0 20 0C20.518 0 21.0148 0.205775 21.3811 0.572057C21.7474 0.938339 21.9531 1.43512 21.9531 1.95312V38.0469C21.9531 38.5649 21.7474 39.0617 21.3811 39.4279C21.0148 39.7942 20.518 40 20 40Z" fill="white"/>
<path d="M38.0469 21.9531H1.95312C1.43512 21.9531 0.938339 21.7474 0.572057 21.3811C0.205775 21.0148 0 20.518 0 20C0 19.482 0.205775 18.9852 0.572057 18.6189C0.938339 18.2526 1.43512 18.0469 1.95312 18.0469H38.0469C38.5649 18.0469 39.0617 18.2526 39.4279 18.6189C39.7942 18.9852 40 19.482 40 20C40 20.518 39.7942 21.0148 39.4279 21.3811C39.0617 21.7474 38.5649 21.9531 38.0469 21.9531Z" fill="white"/>
</svg>
