<svg width="10" height="9" viewBox="0 0 10 9" fill="none" xmlns="http://www.w3.org/2000/svg">
<path d="M0.625 5.75V2.625C0.625 2.2106 0.78962 1.81317 1.08265 1.52015C1.37567 1.22712 1.7731 1.0625 2.1875 1.0625H8.125L7.625 0.6875C7.59217 0.662877 7.56451 0.632029 7.5436 0.596717C7.52269 0.561405 7.50894 0.52232 7.50314 0.481694C7.49734 0.441069 7.49959 0.399698 7.50978 0.359943C7.51996 0.320189 7.53788 0.282831 7.5625 0.25C7.58712 0.21717 7.61797 0.18951 7.65328 0.168602C7.6886 0.147693 7.72768 0.133944 7.76831 0.128141C7.80893 0.122337 7.8503 0.124592 7.89006 0.134777C7.92981 0.144962 7.96717 0.162877 8 0.1875L9.25 1.125C9.28881 1.15411 9.32031 1.19185 9.34201 1.23525C9.3637 1.27864 9.375 1.32649 9.375 1.375C9.375 1.42351 9.3637 1.47136 9.34201 1.51475C9.32031 1.55815 9.28881 1.59589 9.25 1.625L8 2.5625C7.94591 2.60307 7.88012 2.625 7.8125 2.625C7.76399 2.625 7.71614 2.6137 7.67275 2.59201C7.62935 2.57031 7.59161 2.53881 7.5625 2.5C7.51277 2.4337 7.49142 2.35035 7.50314 2.26831C7.51486 2.18626 7.5587 2.11223 7.625 2.0625L8.125 1.6875H2.1875C1.93886 1.6875 1.7004 1.78627 1.52459 1.96209C1.34877 2.1379 1.25 2.37636 1.25 2.625V5.75C1.25 5.83288 1.21708 5.91237 1.15847 5.97097C1.09987 6.02958 1.02038 6.0625 0.9375 6.0625C0.85462 6.0625 0.775134 6.02958 0.716529 5.97097C0.657924 5.91237 0.625 5.83288 0.625 5.75ZM9.0625 2.9375C8.97962 2.9375 8.90013 2.97042 8.84153 3.02903C8.78292 3.08763 8.75 3.16712 8.75 3.25V6.375C8.75 6.62364 8.65123 6.8621 8.47541 7.03791C8.2996 7.21373 8.06114 7.3125 7.8125 7.3125H1.875L2.375 6.9375C2.4413 6.88777 2.48514 6.81374 2.49686 6.73169C2.50858 6.64965 2.48723 6.5663 2.4375 6.5C2.38777 6.4337 2.31374 6.38986 2.23169 6.37814C2.14965 6.36642 2.0663 6.38777 2 6.4375L0.75 7.375C0.711189 7.40411 0.679688 7.44185 0.657991 7.48525C0.636295 7.52864 0.625 7.57649 0.625 7.625C0.625 7.67351 0.636295 7.72136 0.657991 7.76475C0.679688 7.80815 0.711189 7.84589 0.75 7.875L2 8.8125C2.05409 8.85307 2.11988 8.875 2.1875 8.875C2.23601 8.875 2.28386 8.8637 2.32725 8.84201C2.37065 8.82031 2.40839 8.78881 2.4375 8.75C2.48723 8.6837 2.50858 8.60035 2.49686 8.51831C2.48514 8.43626 2.4413 8.36223 2.375 8.3125L1.875 7.9375H7.8125C8.2269 7.9375 8.62433 7.77288 8.91735 7.47985C9.21038 7.18683 9.375 6.7894 9.375 6.375V3.25C9.375 3.16712 9.34208 3.08763 9.28347 3.02903C9.22487 2.97042 9.14538 2.9375 9.0625 2.9375Z" fill="#525252"/>
</svg>
