<svg width="40" height="34" viewBox="0 0 40 34" fill="none" xmlns="http://www.w3.org/2000/svg">
<path d="M26.451 19.6996C26.451 23.2569 23.5573 26.1507 20 26.1507C16.4427 26.1507 13.5501 23.2569 13.5501 19.6996C13.5501 16.1424 16.4427 13.2486 20 13.2486C23.5573 13.2486 26.451 16.1435 26.451 19.6996ZM40 10.5395V28.862C40 31.3046 38.0196 33.2851 35.5769 33.2851H4.42307C1.98043 33.2851 0 31.3046 0 28.862V10.5395C0 8.09681 1.98043 6.11639 4.42307 6.11639H9.86344V4.586C9.86344 2.44856 11.5951 0.71582 13.7336 0.71582H26.2664C28.4049 0.71582 30.1366 2.44856 30.1366 4.586V6.11528H35.5769C38.0196 6.11638 40 8.09681 40 10.5395ZM29.7683 19.6996C29.7683 14.3134 25.3862 9.93128 20 9.93128C14.6149 9.93128 10.2328 14.3134 10.2328 19.6996C10.2328 25.0858 14.6149 29.468 20 29.468C25.3862 29.468 29.7683 25.0858 29.7683 19.6996Z" fill="#2A9D8F"/>
</svg>
