<svg width="23" height="22" viewBox="0 0 23 22" fill="none" xmlns="http://www.w3.org/2000/svg">
<path d="M11.5 0C5.42059 0 0.5 4.91975 0.5 11C0.5 12.9294 1.0032 14.8138 1.95875 16.4758L0.541458 20.8771C0.442596 21.1839 0.523834 21.5203 0.75177 21.7482C0.977523 21.974 1.31305 22.0582 1.62289 21.9585L6.02416 20.5412C7.68618 21.4968 9.57059 22 11.5 22C17.5794 22 22.5 17.0802 22.5 11C22.5 4.92059 17.5802 0 11.5 0ZM11.5 20.2812C9.75724 20.2812 8.05846 19.795 6.58729 18.875C6.37563 18.7428 6.11279 18.707 5.86823 18.7857L2.69107 19.8089L3.71426 16.6318C3.79181 16.3907 3.75908 16.1275 3.6248 15.9127C2.705 14.4415 2.21875 12.7428 2.21875 11C2.21875 5.88235 6.38235 1.71875 11.5 1.71875C16.6176 1.71875 20.7812 5.88235 20.7812 11C20.7812 16.1176 16.6176 20.2812 11.5 20.2812ZM12.5742 11C12.5742 11.5932 12.0933 12.0742 11.5 12.0742C10.9067 12.0742 10.4258 11.5932 10.4258 11C10.4258 10.4067 10.9067 9.92578 11.5 9.92578C12.0933 9.92578 12.5742 10.4067 12.5742 11ZM16.8711 11C16.8711 11.5932 16.3902 12.0742 15.7969 12.0742C15.2035 12.0742 14.7226 11.5932 14.7226 11C14.7226 10.4067 15.2035 9.92578 15.7969 9.92578C16.3902 9.92578 16.8711 10.4067 16.8711 11ZM8.27734 11C8.27734 11.5932 7.79646 12.0742 7.20312 12.0742C6.60995 12.0742 6.1289 11.5932 6.1289 11C6.1289 10.4067 6.60995 9.92578 7.20312 9.92578C7.79646 9.92578 8.27734 10.4067 8.27734 11Z" fill="currentColor"/>
</svg>
