<svg width="18" height="16" viewBox="0 0 18 16" fill="none" xmlns="http://www.w3.org/2000/svg">
<path d="M7.75548 0.976134L0.768852 13.0764C0.642649 13.2949 0.576195 13.5428 0.576172 13.7952C0.576149 14.0475 0.642556 14.2954 0.768719 14.514C0.894882 14.7325 1.07635 14.914 1.29489 15.0401C1.51343 15.1663 1.76132 15.2327 2.01366 15.2327H15.9858C16.2381 15.2327 16.486 15.1663 16.7046 15.0401C16.9231 14.914 17.1046 14.7325 17.2307 14.514C17.3569 14.2954 17.4233 14.0475 17.4233 13.7952C17.4233 13.5428 17.3568 13.2949 17.2306 13.0764L10.2447 0.976134C10.1186 0.757662 9.93716 0.576241 9.71868 0.450107C9.50021 0.323972 9.25238 0.257568 9.0001 0.257568C8.74783 0.257568 8.5 0.323972 8.28152 0.450107C8.06305 0.576241 7.88162 0.757662 7.75548 0.976134Z" fill="currentColor"/>
<path d="M9.09112 4.70825H8.90887C8.46018 4.70825 8.09644 5.07199 8.09644 5.52069V9.404C8.09644 9.8527 8.46018 10.2164 8.90887 10.2164H9.09112C9.53982 10.2164 9.90356 9.8527 9.90356 9.404V5.52069C9.90356 5.07199 9.53982 4.70825 9.09112 4.70825Z" fill="#FFF7ED"/>
<path d="M9 13.2964C9.49902 13.2964 9.90356 12.8918 9.90356 12.3928C9.90356 11.8938 9.49902 11.4893 9 11.4893C8.50097 11.4893 8.09644 11.8938 8.09644 12.3928C8.09644 12.8918 8.50097 13.2964 9 13.2964Z" fill="#FFF7ED"/>
</svg>
