<svg width="8" height="8" viewBox="0 0 8 8" fill="none" xmlns="http://www.w3.org/2000/svg">
<path d="M4.00005 5.2323C4.68025 5.2323 5.23166 4.68089 5.23166 4.00069C5.23166 3.32049 4.68025 2.76907 4.00005 2.76907C3.31985 2.76907 2.76843 3.32049 2.76843 4.00069C2.76843 4.68089 3.31985 5.2323 4.00005 5.2323Z" fill="currentColor"/>
<path d="M7.87729 3.65953C6.93058 2.51552 5.49752 1.41431 4.00002 1.41431C2.50222 1.41431 1.06882 2.51629 0.122738 3.65953C-0.0409127 3.85721 -0.0409127 4.14417 0.122738 4.34185C0.360594 4.62927 0.859244 5.18411 1.52524 5.66891C3.20253 6.88993 4.79381 6.89262 6.47479 5.66891C7.14079 5.18411 7.63944 4.62927 7.87729 4.34185C8.04047 4.14456 8.04131 3.85785 7.87729 3.65953ZM4.00002 2.27643C4.95082 2.27643 5.72428 3.04989 5.72428 4.00069C5.72428 4.95149 4.95082 5.72495 4.00002 5.72495C3.04921 5.72495 2.27575 4.95149 2.27575 4.00069C2.27575 3.04989 3.04921 2.27643 4.00002 2.27643Z" fill="currentColor"/>
</svg>
