<svg width="19" height="24" viewBox="0 0 19 24" fill="none" xmlns="http://www.w3.org/2000/svg">
<path d="M13.7188 0C11.8514 0 10.4826 0.759797 9.15875 1.49461C7.93775 2.17233 6.78444 2.8125 5.28125 2.8125C3.86028 2.8125 2.3922 2.07141 1.76562 1.71323V0H0.359375V24H1.76562V14.5526C2.64589 14.9777 3.9507 15.4688 5.28125 15.4688C7.14852 15.4688 8.51745 14.709 9.84125 13.9741C11.0623 13.2964 12.2156 12.6562 13.7188 12.6562C15.583 12.6562 17.5287 13.932 17.5475 13.9444L18.6406 14.6732V1.73306C17.1948 0.778875 15.4301 0 13.7188 0V0ZM17.2344 12.1661C16.3541 11.741 15.0493 11.25 13.7188 11.25C11.8514 11.25 10.4826 12.0098 9.15875 12.7446C7.93775 13.4223 6.78444 14.0625 5.28125 14.0625C3.86005 14.0625 2.39169 13.3212 1.76562 12.9633V3.30263C2.64589 3.72769 3.9507 4.21875 5.28125 4.21875C7.14852 4.21875 8.51745 3.45895 9.84125 2.72414C11.0623 2.04642 12.2156 1.40625 13.7188 1.40625C15.1398 1.40625 16.6083 2.14753 17.2344 2.50547V12.1661Z" fill="currentColor"/>
</svg>
