<svg width="22" height="21" viewBox="0 0 22 21" fill="none" xmlns="http://www.w3.org/2000/svg">
<path fill-rule="evenodd" clip-rule="evenodd" d="M10.9998 0.249863C5.41233 0.249863 0.87458 4.78763 0.874573 10.3751C0.874545 15.9625 5.4123 20.5002 10.9998 20.5002C16.5872 20.5002 21.125 15.9625 21.1249 10.3751C21.1249 4.78763 16.5872 0.249863 10.9998 0.249863ZM10.9998 0.999579C16.1819 0.999579 20.3752 5.19294 20.3752 10.3751C20.3753 15.5572 16.1819 19.7505 10.9998 19.7505C5.81763 19.7505 1.62426 15.5572 1.62429 10.3751C1.6243 5.19294 5.81766 0.999579 10.9998 0.999579Z" fill="currentColor"/>
<path fill-rule="evenodd" clip-rule="evenodd" d="M10.6249 0.437271V20.1013H11.3746V0.437271H10.6249Z" fill="currentColor"/>
<path fill-rule="evenodd" clip-rule="evenodd" d="M1.29626 10.0002V10.7499H20.7969V10.0002H1.29626ZM2.65646 4.7495V5.50055H19.2493V4.7495H2.65646ZM2.8198 15.2495V16.0006H19.2306V15.2495H2.8198Z" fill="currentColor"/>
<path fill-rule="evenodd" clip-rule="evenodd" d="M9.7654 0.35427C7.09436 2.61161 5.37421 6.26395 5.37421 10.375C5.37421 14.4991 7.10542 18.1603 9.79084 20.4159L10.2728 19.8415C7.77258 17.7416 6.12526 14.289 6.12526 10.375C6.12526 6.47335 7.76159 3.02922 10.2487 0.927267L9.7654 0.35427ZM12.1632 0.290009L11.6852 0.867022C14.2126 2.96301 15.8809 6.43586 15.8809 10.375C15.833 13.3797 14.2456 17.1529 11.6397 19.9232L12.1859 20.4373C14.9203 17.5304 16.5806 13.6357 16.6307 10.3804C16.6307 6.22975 14.8784 2.54717 12.1632 0.295447V0.290009Z" fill="currentColor"/>
</svg>
