<svg width="21" height="24" viewBox="0 0 21 24" fill="none" xmlns="http://www.w3.org/2000/svg">
<path d="M19.496 10.2472C18.8787 9.74253 18.0046 9.58103 17.2687 9.83555C17.0715 9.90385 16.8884 9.99961 16.7243 10.1203C16.3059 10.4281 15.377 11.352 14.6409 12.2665V5.21781C14.6409 4.61869 14.3947 4.03312 13.9653 3.61106C13.539 3.19211 12.9791 2.96616 12.3915 2.97715C12.1247 2.98191 11.8691 3.03483 11.6329 3.1273V2.43882C11.6329 1.78678 11.3648 1.14939 10.8972 0.689793C10.4337 0.234227 9.82727 -0.0113179 9.18585 0.000400918C7.90704 0.0225567 6.86297 1.06205 6.8247 2.3328C6.54766 2.20719 6.24682 2.13669 5.93536 2.12736C5.2857 2.10831 4.64227 2.35972 4.17059 2.81766C3.70861 3.26609 3.45409 3.85807 3.45409 4.48283L3.45245 5.15043C3.25304 5.08488 3.04046 5.04899 2.81945 5.04899C1.70415 5.04899 0.796865 5.95628 0.796865 7.07139L0.797597 17.3176L0.799245 17.3661C0.892446 18.7109 1.17388 19.8622 1.63604 20.7884C2.06927 21.6567 2.6737 22.3558 3.43249 22.8663C4.92571 23.8711 6.77032 24 8.21044 24C11.0385 24 13.5828 22.594 14.8552 20.3293C15.0099 20.0799 15.4177 19.4387 15.858 18.7471C16.2869 18.0733 16.6859 17.4524 17.0376 16.9045C17.231 16.6033 17.4069 16.3294 17.5596 16.0906C18.1285 15.2009 18.7348 14.3383 19.3618 13.5266C19.5943 13.2256 19.6659 13.1439 19.6822 13.126C19.9757 12.8057 20.1606 12.4137 20.217 11.992C20.3059 11.3304 20.0429 10.6943 19.496 10.2472ZM18.8218 11.8052C18.8037 11.94 18.7423 12.0678 18.6444 12.1747C18.5933 12.2306 18.5019 12.3368 18.2477 12.666C17.5953 13.5105 16.9647 14.4075 16.3735 15.3322C16.2211 15.5704 16.0459 15.8432 15.8529 16.1437C15.5004 16.6927 15.1009 17.315 14.6704 17.9911C14.2198 18.699 13.8027 19.3547 13.65 19.6013L13.634 19.6284C12.6129 21.4565 10.5348 22.5922 8.21063 22.5922C6.97045 22.5922 5.39574 22.4905 4.21856 21.6984C3.01739 20.8902 2.35894 19.4491 2.2055 17.2929L2.20476 7.07157C2.20476 6.73264 2.48052 6.45689 2.81945 6.45689C3.16039 6.45689 3.4378 6.73264 3.4378 7.07157V10.906C3.4378 10.9173 3.43908 10.9283 3.43944 10.9397C3.44018 10.9521 3.44018 10.9648 3.44146 10.9772C3.44256 10.9884 3.44475 10.9992 3.4464 11.0102C3.44823 11.0224 3.44952 11.0349 3.4519 11.0472C3.45428 11.0581 3.45757 11.069 3.46032 11.0798C3.46325 11.0913 3.46563 11.1032 3.46929 11.1145C3.47259 11.1255 3.47698 11.1362 3.48101 11.1468C3.48485 11.1576 3.48833 11.1686 3.49291 11.1792C3.49731 11.1898 3.50262 11.1999 3.50756 11.2101C3.5125 11.2204 3.51708 11.2308 3.52239 11.2409C3.5277 11.2508 3.53411 11.2603 3.53997 11.27C3.54583 11.2797 3.55132 11.2896 3.55755 11.2989C3.56396 11.3083 3.5711 11.3171 3.57787 11.326C3.58465 11.3352 3.59087 11.3445 3.59801 11.3531C3.60515 11.3617 3.61303 11.3696 3.62035 11.3778C3.62804 11.3863 3.63537 11.3952 3.64342 11.4033C3.6513 11.411 3.65954 11.4179 3.66778 11.4255C3.6762 11.4331 3.68444 11.4414 3.69341 11.4487C3.70183 11.4557 3.71081 11.4619 3.7196 11.4685C3.72893 11.4754 3.73791 11.4828 3.74743 11.4894C3.7564 11.4954 3.76592 11.5005 3.77508 11.506C3.78515 11.5122 3.79504 11.5188 3.80547 11.5247C3.81499 11.5298 3.82506 11.534 3.83477 11.5388C3.84539 11.5441 3.85601 11.5496 3.867 11.5544C3.87707 11.5588 3.88787 11.5621 3.89812 11.5659C3.90929 11.5699 3.92028 11.5745 3.93163 11.5782C3.94244 11.5815 3.95379 11.5838 3.96477 11.5868C3.97631 11.5897 3.98748 11.5932 3.99902 11.5956C4.01073 11.5979 4.02245 11.5992 4.03417 11.6011C4.04589 11.6027 4.05724 11.6051 4.06896 11.6064C4.08068 11.6075 4.09277 11.6076 4.10467 11.6082C4.11639 11.6087 4.1281 11.61 4.14001 11.61C4.14056 11.61 4.14129 11.61 4.14184 11.61C4.16619 11.61 4.19018 11.6087 4.2138 11.6064C4.22405 11.6054 4.23412 11.6033 4.24438 11.6018C4.25738 11.6 4.27074 11.5985 4.28356 11.5957C4.29711 11.593 4.31011 11.5892 4.3233 11.5857C4.33245 11.5831 4.34197 11.5813 4.35094 11.5785C4.36559 11.574 4.37987 11.5683 4.39416 11.5628C4.40112 11.56 4.40862 11.5578 4.41558 11.5549C4.42986 11.5489 4.44341 11.5417 4.45715 11.535C4.46374 11.5317 4.47051 11.5289 4.4771 11.5254C4.48992 11.5185 4.50201 11.5104 4.51427 11.5027C4.52123 11.4985 4.52837 11.4947 4.53497 11.4901C4.54632 11.4826 4.55712 11.474 4.56792 11.4656C4.57507 11.4602 4.58239 11.4553 4.58916 11.4496C4.59924 11.4416 4.60839 11.4324 4.61791 11.4236C4.62505 11.4172 4.63238 11.411 4.63934 11.4044C4.64812 11.3956 4.656 11.3861 4.66424 11.3769C4.67101 11.3694 4.67834 11.3621 4.68475 11.3544C4.69207 11.3454 4.69866 11.3359 4.70562 11.3266C4.71221 11.3178 4.71917 11.3094 4.72521 11.3002C4.73162 11.2909 4.73693 11.2812 4.74279 11.2715C4.74865 11.2618 4.75506 11.2522 4.76055 11.2424C4.76586 11.2325 4.77026 11.2222 4.7752 11.2121C4.78014 11.2017 4.78564 11.1914 4.79021 11.1808C4.79461 11.1706 4.7979 11.1598 4.80175 11.1493C4.80596 11.1383 4.81036 11.1275 4.81402 11.1162C4.81731 11.1054 4.81969 11.0944 4.82244 11.0834C4.82537 11.0719 4.82885 11.0605 4.83141 11.0488C4.83361 11.0378 4.83489 11.0263 4.83654 11.0149C4.83855 11.003 4.84075 10.9911 4.84203 10.979C4.84332 10.9677 4.84332 10.956 4.84386 10.9444C4.8446 10.9322 4.84588 10.9203 4.84588 10.908L4.86217 4.48466C4.86217 4.24222 4.9649 4.00895 5.1513 3.82786C5.35162 3.63358 5.62261 3.52628 5.89379 3.5347C6.40173 3.5499 6.815 3.99174 6.815 4.52073L6.82305 10.8688C6.82305 10.8816 6.82433 10.8941 6.82507 10.9065C6.82562 10.9177 6.82562 10.9292 6.82671 10.9402C6.828 10.9534 6.83056 10.966 6.83257 10.9789C6.83422 10.9893 6.83532 10.9999 6.83734 11.0102C6.84026 11.0241 6.84429 11.0376 6.84796 11.0512C6.85034 11.06 6.85217 11.069 6.85473 11.0776C6.85931 11.0922 6.86517 11.1065 6.87066 11.1208C6.87341 11.1279 6.87542 11.1352 6.87835 11.1422C6.88494 11.1574 6.89245 11.1722 6.89996 11.1869C6.90289 11.1924 6.90508 11.1982 6.90801 11.2035C6.91625 11.2187 6.92559 11.2332 6.93475 11.2475C6.93768 11.2522 6.94024 11.257 6.94335 11.2616C6.95306 11.276 6.96368 11.2896 6.9743 11.3031C6.97759 11.3074 6.98052 11.3117 6.98382 11.3158C6.99572 11.3302 7.00854 11.3438 7.02154 11.3572C7.02429 11.3601 7.02648 11.363 7.02923 11.3658C7.0426 11.3791 7.05688 11.3916 7.07134 11.4039C7.07409 11.4062 7.07647 11.4088 7.07922 11.4112C7.09368 11.4231 7.1087 11.4339 7.1239 11.4445C7.12719 11.4469 7.13012 11.4494 7.13342 11.4516C7.1488 11.4621 7.16491 11.4714 7.18102 11.4806C7.1845 11.4826 7.1878 11.485 7.19146 11.487C7.20831 11.496 7.2257 11.504 7.24328 11.5119C7.24658 11.5133 7.24969 11.5152 7.25299 11.5166C7.27093 11.5242 7.28942 11.5306 7.3081 11.5368C7.3114 11.5377 7.31433 11.5392 7.31762 11.5403C7.33611 11.5459 7.35497 11.5505 7.37383 11.5547C7.37768 11.5555 7.38134 11.5567 7.38519 11.5577C7.43096 11.567 7.47839 11.5719 7.52691 11.5719C7.52728 11.5719 7.52764 11.5719 7.52801 11.5719C7.54028 11.5719 7.55236 11.5707 7.56445 11.5701C7.57617 11.5694 7.58788 11.5694 7.59942 11.5683C7.61224 11.5668 7.62451 11.5644 7.63714 11.5624C7.64776 11.5608 7.65875 11.5597 7.66937 11.5575C7.682 11.5549 7.69427 11.5513 7.70672 11.548C7.71679 11.5452 7.72686 11.5432 7.73675 11.5401C7.74938 11.5362 7.76147 11.5313 7.77374 11.5265C7.78289 11.5231 7.79241 11.5203 7.80139 11.5165C7.81402 11.511 7.82629 11.5046 7.83856 11.4985C7.84661 11.4945 7.85504 11.491 7.86291 11.4868C7.87499 11.4802 7.88653 11.4725 7.89825 11.4654C7.90576 11.4606 7.91363 11.4564 7.92095 11.4515C7.93212 11.444 7.94256 11.4355 7.95318 11.4273C7.96051 11.4218 7.96801 11.4167 7.97515 11.4108C7.98522 11.4026 7.99475 11.3932 8.00445 11.3843C8.01123 11.378 8.01837 11.372 8.02514 11.3654C8.03411 11.3562 8.04254 11.3464 8.05114 11.3368C8.05755 11.3297 8.06433 11.3229 8.07055 11.3154C8.07824 11.3059 8.0852 11.2958 8.09234 11.2861C8.09857 11.2777 8.10516 11.2696 8.11102 11.2612C8.11761 11.2515 8.1231 11.2413 8.12915 11.2312C8.13482 11.2218 8.14105 11.2127 8.14617 11.2032C8.15167 11.1931 8.15606 11.1825 8.16101 11.1722C8.16595 11.162 8.17144 11.1521 8.17584 11.1415C8.18005 11.1314 8.18353 11.1208 8.18719 11.1103C8.1914 11.0992 8.19598 11.0882 8.19946 11.0768C8.20275 11.0658 8.20513 11.0547 8.20806 11.0435C8.21099 11.0321 8.21447 11.021 8.21667 11.0094C8.21905 10.9979 8.22033 10.986 8.22216 10.9745C8.22381 10.9627 8.22619 10.9512 8.22729 10.9395C8.22857 10.9276 8.22857 10.9155 8.22912 10.9034C8.22985 10.8915 8.23095 10.88 8.23095 10.8679V2.40513C8.23095 1.8646 8.67041 1.41746 9.21038 1.40812C9.47094 1.40445 9.7185 1.50516 9.91058 1.69394C10.1105 1.89042 10.2252 2.16196 10.2252 2.43882V10.9067C10.2252 10.9195 10.2264 10.932 10.2272 10.9446C10.2277 10.9558 10.2277 10.9671 10.2288 10.9783C10.2301 10.9908 10.2327 11.0028 10.2345 11.0151C10.2363 11.0263 10.2374 11.0375 10.2396 11.0483C10.2422 11.0605 10.2458 11.0724 10.249 11.0845C10.2517 11.095 10.2537 11.1054 10.257 11.1156C10.261 11.1286 10.2662 11.1413 10.2709 11.1539C10.2742 11.1627 10.277 11.1717 10.2806 11.1803C10.2863 11.1935 10.2929 11.2061 10.2993 11.2189C10.303 11.2264 10.3063 11.2343 10.3103 11.2418C10.3173 11.2548 10.3253 11.2671 10.3332 11.2795C10.3374 11.2861 10.3411 11.2933 10.3456 11.2998C10.3541 11.3123 10.3634 11.3242 10.3727 11.3361C10.3773 11.342 10.3813 11.3482 10.3861 11.3539C10.3964 11.3665 10.4077 11.3782 10.4189 11.3901C10.4233 11.3945 10.4271 11.3995 10.4315 11.4039C10.4431 11.4156 10.4555 11.4262 10.468 11.437C10.4725 11.441 10.4767 11.4454 10.4815 11.4493C10.4954 11.4608 10.5101 11.4712 10.5247 11.4817C10.5284 11.4842 10.5319 11.4872 10.5357 11.4899C10.5514 11.5005 10.5679 11.5102 10.5846 11.5196C10.5877 11.5212 10.5905 11.5234 10.5936 11.5251C10.6119 11.535 10.6306 11.5437 10.6498 11.5522C10.6516 11.5529 10.6533 11.554 10.6551 11.5547C10.675 11.5632 10.6956 11.5705 10.7164 11.5771C10.7175 11.5776 10.7186 11.578 10.7199 11.5784C10.7637 11.5921 10.8093 11.6014 10.8563 11.6064C10.8567 11.6064 10.8569 11.6064 10.8572 11.6064C10.8809 11.6087 10.9048 11.61 10.9292 11.61C10.9294 11.61 10.9296 11.61 10.9299 11.61C10.9424 11.61 10.9546 11.6087 10.9671 11.6082C10.9786 11.6075 10.9902 11.6075 11.0015 11.6064C11.0145 11.6051 11.0272 11.6025 11.04 11.6005C11.0504 11.5989 11.061 11.5978 11.0715 11.5956C11.0852 11.5928 11.0984 11.5888 11.1118 11.5853C11.1207 11.5829 11.1301 11.5811 11.1389 11.5784C11.1531 11.5738 11.1669 11.5683 11.1808 11.563C11.1883 11.56 11.196 11.5577 11.2035 11.5545C11.2176 11.5485 11.2311 11.5415 11.2449 11.5346C11.2515 11.5313 11.2584 11.5285 11.265 11.5249C11.2784 11.5176 11.2912 11.5093 11.3042 11.5011C11.3104 11.4972 11.3168 11.4938 11.3231 11.4895C11.3362 11.4808 11.3485 11.4709 11.361 11.4612C11.3663 11.4571 11.3719 11.4533 11.3773 11.4491C11.3895 11.4388 11.4011 11.4277 11.4128 11.4167C11.4175 11.4123 11.4227 11.4082 11.4271 11.4037C11.4384 11.3923 11.449 11.3802 11.4595 11.368C11.4639 11.3632 11.4684 11.3586 11.4727 11.3537C11.4827 11.3414 11.4919 11.3284 11.501 11.3156C11.5049 11.3101 11.5093 11.305 11.5131 11.2995C11.5217 11.2867 11.5294 11.2733 11.5371 11.2599C11.5408 11.2537 11.545 11.2478 11.5485 11.2414C11.5558 11.2279 11.562 11.2138 11.5684 11.1997C11.5715 11.1931 11.5752 11.1867 11.5779 11.1799C11.5838 11.1662 11.5886 11.1519 11.5935 11.1378C11.5961 11.1303 11.5994 11.123 11.6017 11.1151C11.6058 11.1017 11.6089 11.0876 11.6124 11.0739C11.6144 11.0651 11.6171 11.0565 11.619 11.0477C11.6217 11.0342 11.6233 11.0201 11.6254 11.0063C11.6266 10.9968 11.6287 10.9875 11.6296 10.9778C11.631 10.9649 11.631 10.9518 11.6316 10.9386C11.6321 10.9278 11.6332 10.9172 11.6332 10.906V5.09568C11.679 4.70292 12.0124 4.39182 12.4162 4.38486C12.6237 4.38139 12.824 4.46305 12.9787 4.61521C13.1406 4.77415 13.2334 4.99387 13.2334 5.21781V13.527L13.2338 13.5585C13.2376 14.0146 13.5372 14.4 13.979 14.5176C14.4179 14.6342 14.8663 14.4498 15.097 14.0547L15.1014 14.0468C15.6533 13.0826 17.1284 11.5712 17.5591 11.2544C17.6089 11.2176 17.6662 11.1882 17.7294 11.1662C18.0099 11.0693 18.3616 11.138 18.6052 11.3372C18.7198 11.4311 18.8507 11.5886 18.8218 11.8052Z" fill="currentColor"/>
</svg>
