<svg width="24" height="24" viewBox="0 0 24 24" fill="none" xmlns="http://www.w3.org/2000/svg">
<path d="M23.7182 22.0999C23.7181 22.0996 23.718 22.0993 23.7179 22.099L17.874 0.288329C17.8184 0.0812165 17.6056 -0.0419025 17.3983 0.0130874L12.1325 1.42394C12.0603 1.44536 11.996 1.48779 11.948 1.5458V0.709951C11.948 0.494955 11.7736 0.320642 11.5586 0.320642H0.657986C0.44299 0.320642 0.268677 0.494955 0.268677 0.709951V23.2899C0.268677 23.5049 0.44299 23.6792 0.657986 23.6792H11.5586C11.7736 23.6792 11.948 23.5049 11.948 23.2899V2.23916L17.7012 23.7115C17.7468 23.8817 17.901 24 18.0772 24C18.1109 23.9997 18.1444 23.9953 18.1769 23.9868L23.4415 22.5759C23.6494 22.5209 23.7732 22.3077 23.7182 22.0999ZM5.71901 22.9006H1.0473V1.09926H5.71901V22.9006ZM11.1693 22.9006H6.49763V1.09926H11.1693V22.9006ZM18.3525 23.1342L12.7102 2.07526L17.2227 0.865675L22.865 21.9246L18.3525 23.1342Z" fill="currentColor"/>
<path d="M4.55109 2.65649H2.21524C2.00024 2.65649 1.82593 2.83081 1.82593 3.0458C1.82593 3.2608 2.00024 3.43511 2.21524 3.43511H4.55109C4.76609 3.43511 4.9404 3.2608 4.9404 3.0458C4.9404 2.83081 4.76609 2.65649 4.55109 2.65649Z" fill="currentColor"/>
<path d="M4.55109 4.21375H2.21524C2.00024 4.21375 1.82593 4.38806 1.82593 4.60305C1.82593 4.81805 2.00024 4.99236 2.21524 4.99236H4.55109C4.76609 4.99236 4.9404 4.81805 4.9404 4.60305C4.9404 4.38806 4.76609 4.21375 4.55109 4.21375Z" fill="currentColor"/>
<path d="M10.0014 2.65649H7.66555C7.45056 2.65649 7.27625 2.83081 7.27625 3.0458C7.27625 3.2608 7.45056 3.43511 7.66555 3.43511H10.0014C10.2164 3.43511 10.3907 3.2608 10.3907 3.0458C10.3907 2.83081 10.2164 2.65649 10.0014 2.65649Z" fill="currentColor"/>
<path d="M10.0014 4.21375H7.66555C7.45056 4.21375 7.27625 4.38806 7.27625 4.60305C7.27625 4.81805 7.45056 4.99236 7.66555 4.99236H10.0014C10.2164 4.99236 10.3907 4.81805 10.3907 4.60305C10.3907 4.38806 10.2164 4.21375 10.0014 4.21375Z" fill="currentColor"/>
<path d="M16.9855 2.95534C16.9354 2.74623 16.7253 2.61732 16.5162 2.6674C16.5094 2.66905 16.5026 2.67085 16.4959 2.67285L14.2379 3.27705C14.03 3.33165 13.9056 3.54451 13.9602 3.75245C14.0148 3.96039 14.2277 4.08472 14.4356 4.03012C14.4368 4.02983 14.438 4.02949 14.4392 4.0292L16.6976 3.4246C16.9067 3.37453 17.0356 3.16444 16.9855 2.95534Z" fill="currentColor"/>
<path d="M17.3789 4.45199C17.3233 4.24429 17.1097 4.12108 16.902 4.17675H16.9005L14.6444 4.78135C14.4365 4.83595 14.3121 5.0488 14.3667 5.25675C14.4213 5.46469 14.6342 5.58902 14.8421 5.53442C14.8433 5.53413 14.8445 5.53379 14.8457 5.5335L17.1037 4.9289C17.3114 4.87323 17.4346 4.65969 17.3789 4.45199Z" fill="currentColor"/>
<path d="M21.2041 18.7405C21.1478 18.5344 20.9362 18.4121 20.7296 18.4664L18.4716 19.0709C18.2639 19.1265 18.1406 19.34 18.1962 19.5477C18.2418 19.718 18.3961 19.8364 18.5725 19.8363H18.574C18.608 19.8363 18.6419 19.8319 18.6748 19.8231L20.9309 19.2185C21.1383 19.1619 21.2606 18.9479 21.2041 18.7405Z" fill="currentColor"/>
<path d="M21.6106 20.2448C21.5544 20.0387 21.3427 19.9164 21.1361 19.9706L18.8778 20.5752C18.6701 20.6308 18.5467 20.8443 18.6023 21.052C18.6479 21.2223 18.8023 21.3407 18.9786 21.3406C19.0126 21.3407 19.0466 21.3361 19.0794 21.327L21.3374 20.7228C21.5448 20.6662 21.6671 20.4522 21.6106 20.2448Z" fill="currentColor"/>
<path d="M10.0014 19.0075H7.66555C7.45056 19.0075 7.27625 19.1818 7.27625 19.3968C7.27625 19.6118 7.45056 19.7861 7.66555 19.7861H10.0014C10.2164 19.7861 10.3907 19.6118 10.3907 19.3968C10.3907 19.1818 10.2164 19.0075 10.0014 19.0075Z" fill="currentColor"/>
<path d="M10.0014 20.5647H7.66555C7.45056 20.5647 7.27625 20.739 7.27625 20.954C7.27625 21.169 7.45056 21.3433 7.66555 21.3433H10.0014C10.2164 21.3433 10.3907 21.169 10.3907 20.954C10.3907 20.739 10.2164 20.5647 10.0014 20.5647Z" fill="currentColor"/>
<path d="M4.55109 19.0075H2.21524C2.00024 19.0075 1.82593 19.1818 1.82593 19.3968C1.82593 19.6118 2.00024 19.7861 2.21524 19.7861H4.55109C4.76609 19.7861 4.9404 19.6118 4.9404 19.3968C4.9404 19.1818 4.76609 19.0075 4.55109 19.0075Z" fill="currentColor"/>
<path d="M4.55109 20.5647H2.21524C2.00024 20.5647 1.82593 20.739 1.82593 20.954C1.82593 21.169 2.00024 21.3433 2.21524 21.3433H4.55109C4.76609 21.3433 4.9404 21.169 4.9404 20.954C4.9404 20.739 4.76609 20.5647 4.55109 20.5647Z" fill="currentColor"/>
</svg>
