<svg width="24" height="24" viewBox="0 0 24 24" fill="none" xmlns="http://www.w3.org/2000/svg">
<path d="M6.10831 0.70993H0.657959V23.2899H6.10831V0.70993Z" fill="currentColor"/>
<path d="M11.5586 23.2899V0.70993H6.10828V23.2899H11.5586Z" fill="currentColor"/>
<path d="M12.2333 1.80001L18.0772 23.6107L23.3418 22.1998L17.4979 0.38916L12.2333 1.80001ZM16.5983 3.04854L14.3403 3.65314L16.5983 3.04854ZM14.7451 5.15742L17.0012 4.55282L14.7451 5.15742ZM18.9769 20.9513L21.2349 20.3467L18.9769 20.9513ZM20.83 18.8424L18.574 19.447L20.83 18.8424Z" fill="currentColor"/>
<path d="M23.718 22.099L17.8741 0.288319C17.8184 0.0812239 17.6059 -0.0418239 17.3984 0.0130672L12.1325 1.42392C12.0601 1.44534 11.9959 1.48777 11.948 1.5458V0.709916C11.948 0.495039 11.7735 0.320616 11.5587 0.320616H0.657977C0.4431 0.320616 0.268677 0.495039 0.268677 0.709916V23.2899C0.268677 23.5048 0.4431 23.6792 0.657977 23.6792H11.5587C11.7735 23.6792 11.948 23.5048 11.948 23.2899V2.23913L17.7012 23.7115C17.7467 23.8816 17.9009 24 18.0772 24C18.1107 23.9996 18.1442 23.9953 18.1769 23.9868L23.4415 22.5759C23.6494 22.521 23.7732 22.3077 23.7183 22.0998C23.7184 22.0994 23.718 22.099 23.718 22.099ZM1.04732 1.09922H5.71907V22.9006H1.04732C1.04732 22.9006 1.04732 1.09922 1.04732 1.09922ZM11.1694 22.9006H6.49762V1.09922H11.1694V22.9006ZM18.3525 23.1342L12.7102 2.07525L17.2228 0.865683L22.865 21.9246L18.3525 23.1342Z" fill="white"/>
<path d="M4.55112 2.65646H2.21523C2.00035 2.65646 1.82593 2.83089 1.82593 3.04576C1.82593 3.26064 2.00035 3.43506 2.21523 3.43506H4.55108C4.76595 3.43506 4.94038 3.26064 4.94038 3.04576C4.94038 2.83089 4.76638 2.65646 4.55112 2.65646Z" fill="white"/>
<path d="M4.55112 4.21371H2.21523C2.00035 4.21371 1.82593 4.38814 1.82593 4.60301C1.82593 4.81789 2.00035 4.99231 2.21523 4.99231H4.55108C4.76595 4.99231 4.94038 4.81789 4.94038 4.60301C4.94038 4.38814 4.76638 4.21371 4.55112 4.21371Z" fill="white"/>
<path d="M7.66554 3.43512H10.0014C10.2163 3.43512 10.3907 3.2607 10.3907 3.04582C10.3907 2.83095 10.2163 2.65652 10.0014 2.65652H7.66554C7.45067 2.65652 7.27625 2.83095 7.27625 3.04582C7.27625 3.2607 7.45067 3.43512 7.66554 3.43512Z" fill="white"/>
<path d="M7.66554 4.99234H10.0014C10.2163 4.99234 10.3907 4.81792 10.3907 4.60304C10.3907 4.38817 10.2163 4.21375 10.0014 4.21375H7.66554C7.45067 4.21375 7.27625 4.38817 7.27625 4.60304C7.27625 4.81792 7.45067 4.99234 7.66554 4.99234Z" fill="white"/>
<path d="M16.6976 3.42457C16.9067 3.37437 17.0355 3.16451 16.9857 2.95545C16.9359 2.74638 16.7256 2.61752 16.5166 2.66735C16.5095 2.6689 16.5029 2.67087 16.4963 2.67279L14.2383 3.27701C14.0304 3.33153 13.9058 3.54448 13.9607 3.75237C14.0152 3.96026 14.2282 4.08486 14.4361 4.02997C14.4373 4.02959 14.4384 4.02917 14.4396 4.02917L16.6976 3.42457Z" fill="white"/>
<path d="M16.9004 4.17674L14.6443 4.78133C14.4364 4.83585 14.3118 5.04881 14.3667 5.2567C14.4212 5.46459 14.6342 5.58919 14.8421 5.53429C14.8433 5.53392 14.8444 5.5335 14.8456 5.5335L17.1036 4.9289C17.3115 4.87321 17.4345 4.65988 17.3789 4.45199C17.3232 4.2441 17.1098 4.1211 16.9019 4.17674C16.902 4.17674 16.9004 4.17674 16.9004 4.17674Z" fill="white"/>
<path d="M18.5741 19.8363C18.3592 19.8363 18.1848 19.6623 18.1848 19.447C18.1848 19.2707 18.3032 19.1165 18.4733 19.071L20.7313 18.4664C20.9392 18.4119 21.1521 18.5361 21.2067 18.744C21.2608 18.9507 21.1386 19.1621 20.9326 19.2185L18.6749 19.8251C18.6422 19.8328 18.608 19.8367 18.5741 19.8363Z" fill="white"/>
<path d="M18.977 21.3406C18.7621 21.3406 18.5876 21.1666 18.5876 20.9513C18.5876 20.775 18.706 20.6208 18.8761 20.5753L21.1341 19.9707C21.342 19.9161 21.555 20.0404 21.6095 20.2483C21.6636 20.455 21.5414 20.6664 21.3354 20.7228L19.0774 21.327C19.0447 21.3359 19.0108 21.3406 18.977 21.3406Z" fill="white"/>
<path d="M10.0014 19.7861H7.66554C7.45067 19.7861 7.27625 19.6117 7.27625 19.3968C7.27625 19.182 7.45067 19.0075 7.66554 19.0075H10.0014C10.2163 19.0075 10.3907 19.182 10.3907 19.3968C10.3907 19.6117 10.2167 19.7861 10.0014 19.7861Z" fill="white"/>
<path d="M10.0014 21.3434H7.66554C7.45067 21.3434 7.27625 21.1689 7.27625 20.9541C7.27625 20.7392 7.45067 20.5648 7.66554 20.5648H10.0014C10.2163 20.5648 10.3907 20.7392 10.3907 20.9541C10.3907 21.1689 10.2167 21.3434 10.0014 21.3434Z" fill="white"/>
<path d="M4.55112 19.7861H2.21523C2.00035 19.7861 1.82593 19.6117 1.82593 19.3968C1.82593 19.182 2.00035 19.0075 2.21523 19.0075H4.55108C4.76595 19.0075 4.94038 19.182 4.94038 19.3968C4.94042 19.6117 4.76638 19.7861 4.55112 19.7861Z" fill="white"/>
<path d="M4.55112 21.3434H2.21523C2.00035 21.3434 1.82593 21.1689 1.82593 20.9541C1.82593 20.7392 2.00035 20.5648 2.21523 20.5648H4.55108C4.76595 20.5648 4.94038 20.7392 4.94038 20.9541C4.94042 21.1689 4.76638 21.3434 4.55112 21.3434Z" fill="white"/>
</svg>
