<svg width="17" height="17" viewBox="0 0 17 17" fill="none" xmlns="http://www.w3.org/2000/svg">
<path d="M8.01319 0.055481C8.76839 0.055481 9.37665 0.521081 9.37665 1.23708C9.37665 1.68775 9.39239 2.02402 9.67559 2.11015C12.0839 2.83735 13.6281 4.54188 13.6281 6.75548V10.476C13.6281 12.1806 14.3255 12.5256 15.2031 13.1776C16.474 14.1203 16.1839 16.0832 14.7255 16.0819H1.30145C-0.156946 16.0832 -0.447079 14.1203 0.823854 13.1776C1.70039 12.5256 2.39879 12.1806 2.39879 10.476V6.75548C2.39879 4.54188 3.94305 2.83735 6.35132 2.11015C6.63372 2.02402 6.65025 1.68775 6.65025 1.23708C6.65052 0.521081 7.25905 0.055481 8.01319 0.055481Z" fill="currentColor"/>
</svg>
