<svg width="22" height="22" viewBox="0 0 22 22" fill="none" xmlns="http://www.w3.org/2000/svg">
<path d="M11 10.52C13.651 10.52 15.8 8.37095 15.8 5.71998C15.8 3.06902 13.651 0.919983 11 0.919983C8.34905 0.919983 6.20001 3.06902 6.20001 5.71998C6.20001 8.37095 8.34905 10.52 11 10.52Z" fill="currentColor"/>
<path d="M12.0176 11.48H9.98244C8.78856 11.4838 7.60712 11.7226 6.50557 12.183C5.40401 12.6434 4.40393 13.3162 3.5624 14.1631C2.72088 15.01 2.0544 16.0143 1.60102 17.1187C1.14764 18.2232 0.916241 19.4061 0.920029 20.6C0.920029 20.7273 0.9706 20.8494 1.06062 20.9394C1.15064 21.0294 1.27273 21.08 1.40003 21.08H20.6C20.7333 21.0679 20.8569 21.0056 20.946 20.9058C21.0351 20.806 21.083 20.6761 21.08 20.5424C21.075 18.1404 20.1186 15.8383 18.4201 14.1399C16.7217 12.4415 14.4196 11.4851 12.0176 11.48Z" fill="currentColor"/>
</svg>
