<svg width="23" height="20" viewBox="0 0 23 20" fill="none" xmlns="http://www.w3.org/2000/svg">
<path d="M18.6862 0.477177C18.3165 0.846375 18.3163 1.44549 18.6857 1.81516C21.1712 4.30238 21.1696 8.35078 18.6822 10.8397C18.3128 11.2095 18.313 11.8084 18.6826 12.1779C18.8674 12.3625 19.1094 12.4549 19.3514 12.4549C19.5937 12.4549 19.8359 12.3623 20.0207 12.1775C23.2451 8.95104 23.2467 3.7026 20.0242 0.47765C19.655 0.107979 19.0557 0.1076 18.6862 0.477177Z" fill="currentColor"/>
<path d="M15.1487 3.19185C14.779 3.56104 14.7788 4.16016 15.1482 4.52983C16.139 5.52143 16.1389 7.13494 15.148 8.12663C14.7786 8.4962 14.7788 9.09532 15.1485 9.4648C15.3332 9.6494 15.5753 9.74165 15.8172 9.74165C16.0596 9.74165 16.3018 9.64931 16.4865 9.46424C18.2145 7.7351 18.2146 4.92146 16.4867 3.19232C16.1175 2.82246 15.5182 2.82227 15.1487 3.19185Z" fill="currentColor"/>
<path d="M7.24385 12.4298C9.67647 12.2622 11.6049 10.2286 11.6049 7.75126C11.6049 5.1646 9.50275 3.0603 6.91903 3.0603C4.33512 3.0603 2.233 5.1646 2.233 7.75126C2.233 10.2285 4.1614 12.2621 6.59411 12.4298C4.77272 12.4998 3.16867 13.1579 2.05067 14.3022C0.902111 15.4777 0.318415 17.1053 0.362696 19.0091C0.374618 19.5228 0.794531 19.9333 1.30859 19.9333H12.5285C13.0426 19.9333 13.4625 19.5228 13.4744 19.0089C13.5186 17.1049 12.9348 15.4772 11.7862 14.3016C10.6684 13.1577 9.06486 12.4998 7.24385 12.4298Z" fill="currentColor"/>
</svg>
