<svg width="22" height="22" viewBox="0 0 22 22" fill="none" xmlns="http://www.w3.org/2000/svg">
<path d="M11 10.52C11.9494 10.52 12.8774 10.2385 13.6667 9.71105C14.4561 9.18362 15.0713 8.43396 15.4346 7.55688C15.7979 6.67979 15.893 5.71467 15.7078 4.78357C15.5226 3.85246 15.0654 2.99718 14.3941 2.32589C13.7228 1.6546 12.8676 1.19744 11.9364 1.01223C11.0053 0.827022 10.0402 0.922078 9.16313 1.28538C8.28605 1.64868 7.53639 2.26391 7.00896 3.05326C6.48153 3.84262 6.20001 4.77065 6.20001 5.72C6.20001 6.99304 6.70573 8.21393 7.6059 9.11411C8.50607 10.0143 9.72697 10.52 11 10.52ZM11 1.88C11.7595 1.88 12.5019 2.10521 13.1334 2.52716C13.7649 2.9491 14.2571 3.54883 14.5477 4.25049C14.8384 4.95216 14.9144 5.72426 14.7662 6.46914C14.6181 7.21403 14.2523 7.89825 13.7153 8.43529C13.1783 8.97232 12.494 9.33805 11.7492 9.48621C11.0043 9.63438 10.2322 9.55833 9.53051 9.26769C8.82884 8.97705 8.22911 8.48487 7.80717 7.85339C7.38522 7.2219 7.16001 6.47948 7.16001 5.72C7.16001 4.70157 7.56458 3.72485 8.28472 3.00471C9.00486 2.28457 9.98158 1.88 11 1.88Z" fill="currentColor"/>
<path d="M12.0176 11.48H9.98244C8.78856 11.4838 7.60712 11.7227 6.50557 12.183C5.40401 12.6434 4.40393 13.3162 3.5624 14.1631C2.72088 15.01 2.0544 16.0143 1.60102 17.1187C1.14764 18.2232 0.916241 19.4061 0.920029 20.6C0.920029 20.7273 0.9706 20.8494 1.06062 20.9394C1.15064 21.0294 1.27273 21.08 1.40003 21.08H20.6C20.7333 21.0679 20.8569 21.0056 20.946 20.9058C21.0351 20.806 21.083 20.6761 21.08 20.5424C21.075 18.1405 20.1186 15.8383 18.4201 14.1399C16.7217 12.4415 14.4196 11.4851 12.0176 11.48ZM1.88003 20.12C1.99283 18.0484 2.89412 16.0986 4.39899 14.6705C5.90386 13.2424 7.8982 12.4443 9.97284 12.44H12.008C14.086 12.4394 16.0851 13.2353 17.5941 14.6639C19.1031 16.0925 20.0071 18.0451 20.12 20.12H1.88003Z" fill="currentColor"/>
</svg>
