<svg width="25" height="24" viewBox="0 0 25 24" fill="none" xmlns="http://www.w3.org/2000/svg">
<path d="M5.87172 23.5146C5.60877 23.5146 5.34765 23.4326 5.12481 23.2715C4.7097 22.9706 4.51578 22.4535 4.62876 21.9545L6.17275 15.1533L0.936525 10.5612C0.551627 10.2252 0.40459 9.6931 0.562614 9.20621C0.720638 8.72024 1.15058 8.37618 1.65963 8.32912L8.58779 7.70013L11.3269 1.29C11.5289 0.819038 11.9889 0.514893 12.4999 0.514893C13.011 0.514893 13.471 0.819039 13.673 1.2889L16.4121 7.70013L23.3392 8.32912C23.8493 8.37508 24.2793 8.72024 24.4373 9.20621C24.5953 9.69219 24.4492 10.2252 24.0643 10.5612L18.8281 15.1523L20.372 21.9534C20.4852 22.4535 20.2911 22.9706 19.8762 23.2705C19.4622 23.5705 18.9101 23.5935 18.4741 23.3315L12.4999 19.7614L6.52579 23.3335C6.32382 23.4535 6.09877 23.5146 5.87172 23.5146ZM12.4999 18.2235C12.727 18.2235 12.9519 18.2844 13.154 18.4044L18.7922 21.7765L17.335 15.3572C17.231 14.9004 17.3861 14.4234 17.7391 14.1143L22.6833 9.77825L16.142 9.18424C15.6711 9.14121 15.266 8.84512 15.082 8.41115L12.4999 2.36192L9.91479 8.41207C9.73278 8.84311 9.32774 9.1392 8.85788 9.18223L2.31571 9.77624L7.25969 14.1123C7.61383 14.4223 7.76874 14.8984 7.66382 15.3563L6.20772 21.7754L11.8459 18.4044C12.0478 18.2844 12.2729 18.2235 12.4999 18.2235ZM8.53487 7.8241C8.53487 7.8241 8.53487 7.8252 8.53378 7.82611L8.53487 7.8241ZM16.463 7.82117L16.4641 7.82318C16.4641 7.82208 16.4641 7.82208 16.463 7.82117Z" fill="currentColor"/>
</svg>
