<svg width="20" height="20" viewBox="0 0 20 20" fill="none" xmlns="http://www.w3.org/2000/svg">
<path d="M19.7402 0.831281C19.6405 0.413531 19.1815 0.12928 18.7652 0.27703C18.7652 0.27703 0.734492 6.64078 0.731492 6.64303C0.454742 6.74578 0.251493 7.00978 0.236493 7.31203C0.222993 7.60228 0.402243 7.90453 0.666992 8.02753L7.65099 11.2878C7.65099 11.2878 11.0537 7.88503 11.0597 7.87903C11.7347 7.20403 12.8125 8.24803 12.1202 8.93953L8.71149 12.3483C8.71149 12.3483 11.9672 19.3248 11.9732 19.336C12.106 19.591 12.3655 19.753 12.6505 19.7658C12.9602 19.78 13.2467 19.543 13.3577 19.2655C13.3577 19.2655 19.7177 1.24528 19.7215 1.23403C19.7687 1.10428 19.7717 0.964031 19.7402 0.831281Z" fill="currentColor"/>
</svg>
