<svg width="14" height="12" viewBox="0 0 14 12" fill="none" xmlns="http://www.w3.org/2000/svg">
<path d="M1 2.5H3C3 3.0515 3.4485 3.5 4 3.5H5C5.5515 3.5 6 3.0515 6 2.5H13C13.276 2.5 13.5 2.2765 13.5 2C13.5 1.7235 13.276 1.5 13 1.5H6C6 0.9485 5.5515 0.5 5 0.5H4C3.4485 0.5 3 0.9485 3 1.5H1C0.724 1.5 0.5 1.7235 0.5 2C0.5 2.2765 0.724 2.5 1 2.5Z" fill="currentColor"/>
<path d="M13 5.5H10C10 4.9485 9.5515 4.5 9 4.5H8C7.4485 4.5 7 4.9485 7 5.5H1C0.724 5.5 0.5 5.7235 0.5 6C0.5 6.2765 0.724 6.5 1 6.5H7C7 7.0515 7.4485 7.5 8 7.5H9C9.5515 7.5 10 7.0515 10 6.5H13C13.276 6.5 13.5 6.2765 13.5 6C13.5 5.7235 13.276 5.5 13 5.5Z" fill="currentColor"/>
<path d="M13 9.5H6C6 8.9485 5.5515 8.5 5 8.5H4C3.4485 8.5 3 8.9485 3 9.5H1C0.724 9.5 0.5 9.7235 0.5 10C0.5 10.2765 0.724 10.5 1 10.5H3C3 11.0515 3.4485 11.5 4 11.5H5C5.5515 11.5 6 11.0515 6 10.5H13C13.276 10.5 13.5 10.2765 13.5 10C13.5 9.7235 13.276 9.5 13 9.5Z" fill="currentColor"/>
</svg>
