<svg width="21" height="24" viewBox="0 0 21 24" fill="none" xmlns="http://www.w3.org/2000/svg">
<path d="M17.0074 16.1435C15.8575 16.1435 14.8215 16.64 14.1024 17.43L7.63497 13.4243C7.80764 12.9823 7.9034 12.5022 7.9034 12C7.9034 11.4975 7.80764 11.0174 7.63497 10.5756L14.1024 6.56981C14.8215 7.35972 15.8575 7.85649 17.0074 7.85649C19.1735 7.85649 20.9357 6.09429 20.9357 3.92815C20.9357 1.76202 19.1735 0 17.0074 0C14.8413 0 13.0791 1.7622 13.0791 3.92834C13.0791 4.43059 13.175 4.91069 13.3475 5.35271L6.88021 9.35832C6.16115 8.5684 5.12515 8.07164 3.97524 8.07164C1.80911 8.07164 0.0469055 9.83402 0.0469055 12C0.0469055 14.1661 1.80911 15.9283 3.97524 15.9283C5.12515 15.9283 6.16115 15.4317 6.88021 14.6416L13.3475 18.6472C13.175 19.0893 13.0791 19.5694 13.0791 20.0718C13.0791 22.2377 14.8413 23.9999 17.0074 23.9999C19.1735 23.9999 20.9357 22.2377 20.9357 20.0718C20.9357 17.9057 19.1735 16.1435 17.0074 16.1435ZM14.5115 3.92834C14.5115 2.55212 15.6312 1.43243 17.0074 1.43243C18.3836 1.43243 19.5033 2.55212 19.5033 3.92834C19.5033 5.30455 18.3836 6.42424 17.0074 6.42424C15.6312 6.42424 14.5115 5.30455 14.5115 3.92834ZM3.97524 14.4959C2.59884 14.4959 1.47915 13.3762 1.47915 12C1.47915 10.6238 2.59884 9.50407 3.97524 9.50407C5.35146 9.50407 6.47097 10.6238 6.47097 12C6.47097 13.3762 5.35146 14.4959 3.97524 14.4959ZM14.5115 20.0716C14.5115 18.6954 15.6312 17.5757 17.0074 17.5757C18.3836 17.5757 19.5033 18.6954 19.5033 20.0716C19.5033 21.4478 18.3836 22.5675 17.0074 22.5675C15.6312 22.5675 14.5115 21.4478 14.5115 20.0716Z" fill="currentColor"/>
</svg>
