<svg width="24" height="24" viewBox="0 0 24 24" fill="none" xmlns="http://www.w3.org/2000/svg">
<path d="M20.1449 1.61725H3.83162C2.12599 1.61725 0.738281 3.00468 0.738281 4.71058V14.694C0.738281 16.396 2.11995 17.7813 3.82063 17.7873V22.3177L10.3313 17.7873H20.1449C21.8506 17.7873 23.2383 16.3996 23.2383 14.694V4.71058C23.2383 3.00468 21.8506 1.61725 20.1449 1.61725ZM21.9199 14.694C21.9199 15.6726 21.1237 16.469 20.1449 16.469H9.91763L5.13899 19.7942V16.469H3.83162C2.85288 16.469 2.05664 15.6726 2.05664 14.694V4.71058C2.05664 3.7317 2.85288 2.93561 3.83162 2.93561H20.1449C21.1237 2.93561 21.9199 3.7317 21.9199 4.71058V14.694Z" fill="currentColor"/>
<path d="M6.76031 6.27557H17.2163V7.59393H6.76031V6.27557Z" fill="currentColor"/>
<path d="M6.76031 9.08807H17.2163V10.4064H6.76031V9.08807Z" fill="currentColor"/>
<path d="M6.76031 11.9006H17.2163V13.219H6.76031V11.9006Z" fill="currentColor"/>
</svg>
