<svg width="25" height="24" viewBox="0 0 25 24" fill="none" xmlns="http://www.w3.org/2000/svg">
<path d="M5.87172 23.5147C5.60877 23.5147 5.34765 23.4326 5.12481 23.2715C4.7097 22.9707 4.51578 22.4536 4.62876 21.9546L6.17275 15.1533L0.936525 10.5613C0.551627 10.2253 0.40459 9.69316 0.562614 9.20627C0.720638 8.7203 1.15058 8.37624 1.65963 8.32918L8.58779 7.70019L11.3269 1.29006C11.5289 0.8191 11.9889 0.514954 12.4999 0.514954C13.011 0.514954 13.471 0.8191 13.673 1.28896L16.4121 7.70019L23.3392 8.32918C23.8493 8.37514 24.2793 8.7203 24.4373 9.20627C24.5953 9.69225 24.4492 10.2253 24.0643 10.5613L18.8281 15.1524L20.372 21.9535C20.4852 22.4536 20.2911 22.9707 19.8762 23.2706C19.4622 23.5705 18.9101 23.5936 18.4741 23.3316L12.4999 19.7615L6.52579 23.3336C6.32382 23.4535 6.09877 23.5147 5.87172 23.5147ZM12.4999 18.2235C12.727 18.2235 12.9519 18.2845 13.154 18.4044L18.7922 21.7766L17.335 15.3573C17.231 14.9004 17.3861 14.4234 17.7391 14.1144L22.6833 9.77831L16.142 9.1843C15.6711 9.14127 15.266 8.84518 15.082 8.41121L12.4999 2.36199L9.91479 8.41213C9.73278 8.84317 9.32774 9.13926 8.85788 9.18229L2.31571 9.7763L7.25969 14.1123C7.61383 14.4223 7.76874 14.8984 7.66382 15.3564L6.20772 21.7755L11.8459 18.4044C12.0478 18.2845 12.2729 18.2235 12.4999 18.2235ZM8.53487 7.82416C8.53487 7.82416 8.53487 7.82526 8.53378 7.82617L8.53487 7.82416ZM16.463 7.82123L16.4641 7.82324C16.4641 7.82215 16.4641 7.82215 16.463 7.82123Z" fill="currentColor"/>
</svg>
