<svg width="8" height="8" viewBox="0 0 8 8" fill="none" xmlns="http://www.w3.org/2000/svg">
<path d="M7.97915 3.06874C7.92678 2.90675 7.7831 2.79169 7.61311 2.77637L5.30409 2.56671L4.39104 0.429633C4.32372 0.273013 4.1704 0.171631 4.00004 0.171631C3.82969 0.171631 3.67636 0.273013 3.60904 0.429999L2.69599 2.56671L0.386606 2.77637C0.216924 2.79206 0.0736093 2.90675 0.0209346 3.06874C-0.0317401 3.23073 0.0169062 3.40841 0.145266 3.52041L1.89061 5.05109L1.37595 7.31817C1.33829 7.48487 1.40299 7.65717 1.5413 7.75715C1.61564 7.81086 1.70262 7.83821 1.79033 7.83821C1.86595 7.83821 1.94097 7.81782 2.00829 7.77754L4.00004 6.58714L5.99106 7.77754C6.13675 7.86518 6.32041 7.85719 6.45842 7.75715C6.59679 7.65687 6.66143 7.4845 6.62377 7.31817L6.10911 5.05109L7.85445 3.52071C7.98281 3.40841 8.03182 3.23103 7.97915 3.06874Z" fill="currentColor"/>
</svg>
