<svg width="10" height="11" viewBox="0 0 10 11" fill="none" xmlns="http://www.w3.org/2000/svg">
<path d="M9.9963 6.52709C9.9963 6.15156 9.79453 5.82226 9.49371 5.64191C9.60896 5.47549 9.67656 5.27359 9.67656 5.05627C9.67656 4.48766 9.21394 4.02504 8.64533 4.02504H6.46841C6.53513 3.72269 6.62638 3.269 6.68992 2.79406C6.85527 1.55811 6.74226 0.872657 6.33431 0.636935C6.07998 0.490001 5.80576 0.460197 5.56217 0.552931C5.37398 0.624611 5.11984 0.800841 4.97502 1.23336L4.40287 2.73143C4.02342 3.66859 2.62 4.66691 2.28783 4.8935H0.299726C0.136348 4.8935 0.00390625 5.02596 0.00390625 5.18932V9.53419C0.00390625 9.69757 0.136367 9.83002 0.299726 9.83002H2.32166C3.44877 10.2745 4.63447 10.5 5.84695 10.5H8.21894C8.78755 10.5 9.25017 10.0374 9.25017 9.46877C9.25017 9.26964 9.19343 9.08351 9.09529 8.92572C9.43906 8.7583 9.67652 8.40529 9.67652 7.99793C9.67652 7.78058 9.60892 7.57871 9.49367 7.41228C9.79453 7.23193 9.9963 6.90261 9.9963 6.52709ZM2.08201 9.23839H0.595547V5.48517H2.08201V9.23839ZM8.96505 6.96668H8.64531C8.48193 6.96668 8.34949 7.09914 8.34949 7.2625C8.34949 7.42588 8.48195 7.55832 8.64531 7.55832C8.88769 7.55832 9.0849 7.75552 9.0849 7.99793C9.0849 8.24031 8.88769 8.43752 8.64531 8.43752H8.21896C8.05558 8.43752 7.92314 8.56998 7.92314 8.73334C7.92314 8.8967 8.0556 9.02916 8.21896 9.02916C8.46134 9.02916 8.65855 9.22636 8.65855 9.46875C8.65855 9.71113 8.46134 9.90834 8.21896 9.90834H5.84697C4.75744 9.90834 3.69096 9.71449 2.67369 9.33183V5.34676C3.12043 5.03855 4.52715 4.00602 4.95265 2.95014C4.95332 2.94846 4.95398 2.94678 4.95463 2.9451L5.53008 1.4384C5.5317 1.43418 5.53322 1.4299 5.53461 1.42563C5.59041 1.25668 5.67498 1.14311 5.77279 1.10586C5.86763 1.06971 5.96955 1.10949 6.03832 1.14924C6.04086 1.1507 6.28763 1.33475 6.10412 2.71107C5.99988 3.49273 5.81056 4.24035 5.80869 4.24781C5.78613 4.33631 5.80576 4.43027 5.86175 4.50238C5.91781 4.57449 6.004 4.6167 6.09535 4.6167H8.64537C8.88775 4.6167 9.08496 4.81391 9.08496 5.05629C9.08496 5.29867 8.88775 5.49588 8.64537 5.49588C8.48199 5.49588 8.34955 5.62834 8.34955 5.7917C8.34955 5.95508 8.48201 6.08752 8.64537 6.08752H8.96511C9.2075 6.08752 9.4047 6.28472 9.4047 6.52711C9.40468 6.76947 9.20744 6.96668 8.96505 6.96668Z" fill="currentColor"/>
</svg>
