<svg width="10" height="11" viewBox="0 0 10 11" fill="none" xmlns="http://www.w3.org/2000/svg">
<path d="M0.299727 4.89352C0.136348 4.89352 0.00390625 5.02599 0.00390625 5.18934V9.53424C0.00390625 9.69762 0.136367 9.83006 0.299727 9.83006H2.08202V4.89352H0.299727Z" fill="currentColor"/>
<path d="M9.99649 6.52711C9.99649 6.15158 9.79472 5.82229 9.49389 5.64193C9.60915 5.47551 9.67675 5.27361 9.67675 5.05629C9.67675 4.48767 9.21413 4.02505 8.64551 4.02505H6.46859C6.53531 3.72271 6.62656 3.26901 6.69009 2.79407C6.85545 1.55811 6.74244 0.872657 6.33449 0.636934C6.08015 0.489999 5.80593 0.460195 5.56234 0.552929C5.37415 0.624609 5.12001 0.80084 4.97518 1.23336L4.40303 2.73143C4.11297 3.44778 3.22471 4.19984 2.67383 4.61568V9.96097C3.69481 10.3187 4.7602 10.5 5.84712 10.5H8.21912C8.78774 10.5 9.25036 10.0374 9.25036 9.4688C9.25036 9.26968 9.19362 9.08355 9.09547 8.92576C9.43925 8.75833 9.67671 8.40532 9.67671 7.99796C9.67671 7.78061 9.60911 7.57876 9.49386 7.41231C9.79472 7.23196 9.99649 6.90264 9.99649 6.52711Z" fill="currentColor"/>
</svg>
