<svg width="25" height="24" viewBox="0 0 25 24" fill="none" xmlns="http://www.w3.org/2000/svg">
<path d="M18.7584 4.09791C18.7584 3.53484 18.5386 3.00478 18.1404 2.60653L16.1519 0.618C15.7591 0.225234 15.2017 0 14.6468 0H14.526V4.21875H18.7584L18.7584 4.09791Z" fill="currentColor"/>
<path d="M13.3408 14.5095C13.4754 14.101 13.7102 13.7206 14.0165 13.4123L18.7772 8.67075V5.625H13.8365C13.4479 5.625 13.1562 5.31052 13.1562 4.92188V0H2.60938C1.44622 0 0.5 0.946219 0.5 2.10938V21.8906C0.5 23.0538 1.44622 24 2.60938 24H16.649C17.8122 24 18.7772 23.0538 18.7772 21.8906V16.6429L18.0045 17.3969C17.6914 17.7072 17.3248 17.9331 16.9114 18.0712L14.6757 18.8175L14.3351 18.8361C13.772 18.8361 13.2392 18.5621 12.9082 18.1035C12.58 17.6468 12.4908 17.055 12.6693 16.5201L13.3408 14.5095ZM4.01562 12.6562H11.024C11.4127 12.6562 11.7272 12.9707 11.7272 13.3594C11.7272 13.748 11.4127 14.0625 11.024 14.0625H4.01562C3.62698 14.0625 3.3125 13.748 3.3125 13.3594C3.3125 12.9707 3.62698 12.6562 4.01562 12.6562ZM3.3125 10.5469C3.3125 10.1582 3.62698 9.84375 4.01562 9.84375H11.024C11.4127 9.84375 11.7272 10.1582 11.7272 10.5469C11.7272 10.9355 11.4127 11.25 11.024 11.25H4.01562C3.62698 11.25 3.3125 10.9355 3.3125 10.5469ZM3.3125 16.1719C3.3125 15.7832 3.62698 15.4688 4.01562 15.4688H11.024C11.4127 15.4688 11.7272 15.7832 11.7272 16.1719C11.7272 16.5605 11.4127 16.875 11.024 16.875H4.01562C3.62698 16.875 3.3125 16.5605 3.3125 16.1719ZM13.8365 19.6875C14.2252 19.6875 14.5397 20.002 14.5397 20.3906C14.5397 20.7793 14.2252 21.0938 13.8365 21.0938H9.6178C9.22916 21.0938 8.91467 20.7793 8.91467 20.3906C8.91467 20.002 9.22916 19.6875 9.6178 19.6875H13.8365ZM4.01562 8.4375C3.62698 8.4375 3.3125 8.12302 3.3125 7.73438C3.3125 7.34573 3.62698 7.03125 4.01562 7.03125H13.8365C14.2252 7.03125 14.5397 7.34573 14.5397 7.73438C14.5397 8.12302 14.2252 8.4375 13.8365 8.4375H4.01562Z" fill="currentColor"/>
<path d="M14.6146 15.1316L14.0029 16.9668C13.9112 17.2417 14.1728 17.5032 14.4477 17.4114L16.2818 16.7988L14.6146 15.1316Z" fill="currentColor"/>
<path d="M20.0754 9.34253L15.4447 13.9733L17.4418 15.9704C18.4884 14.9236 20.5249 12.8868 22.0723 11.3394L20.0754 9.34253Z" fill="currentColor"/>
<path d="M24.0868 7.32576C23.8396 7.07718 23.4757 6.93506 23.0898 6.93506C22.7038 6.93506 22.34 7.07718 22.0914 7.32646L21.0696 8.3482L23.0664 10.345C23.6258 9.78557 24.0124 9.39895 24.0882 9.32315C24.6375 8.77307 24.6374 7.87711 24.0868 7.32576Z" fill="currentColor"/>
<path d="M24.0882 9.32322C24.0882 9.32322 24.0882 9.32317 24.0883 9.32312C24.0901 9.32134 24.0909 9.32054 24.0923 9.31909C24.0909 9.32059 24.0901 9.32139 24.0882 9.32322Z" fill="currentColor"/>
<path d="M24.0923 9.3191C24.0946 9.31685 24.0972 9.31423 24.0986 9.31287C24.0972 9.31427 24.0946 9.31685 24.0923 9.3191Z" fill="currentColor"/>
<path d="M24.0986 9.31289C24.1031 9.30835 24.1032 9.30825 24.0986 9.31289V9.31289Z" fill="currentColor"/>
</svg>
