<svg width="25" height="24" viewBox="0 0 25 24" fill="none" xmlns="http://www.w3.org/2000/svg">
<g clip-path="url(#clip0_749_9688)">
<path d="M23.8808 7.55283C23.0584 6.73036 21.7202 6.73041 20.8975 7.55302C20.6444 7.80628 19.0289 9.42314 18.7821 9.67017V4.09809C18.7821 3.53466 18.5627 3.00497 18.1642 2.60658L16.1756 0.617813C15.7772 0.219375 15.2474 0 14.684 0H2.61023C1.44712 0 0.500854 0.946266 0.500854 2.10938V21.8906C0.500854 23.0537 1.44712 24 2.61023 24H16.6727C17.8358 24 18.7821 23.0537 18.7821 21.8906V15.639L23.8808 10.536C24.7052 9.71161 24.7054 8.37727 23.8808 7.55283ZM14.5634 1.40625C14.6962 1.40625 14.9522 1.38323 15.1812 1.61217L17.1699 3.60094C17.3931 3.82411 17.3759 4.06866 17.3759 4.21875H14.5634V1.40625ZM17.3759 21.8906C17.3759 22.2783 17.0605 22.5938 16.6727 22.5938H2.61023C2.22253 22.5938 1.9071 22.2783 1.9071 21.8906V2.10938C1.9071 1.72167 2.22253 1.40625 2.61023 1.40625H13.1571V4.92188C13.1571 5.31019 13.4719 5.625 13.8602 5.625H17.3759V11.0776C17.3759 11.0776 15.3014 13.1538 15.3014 13.1539L14.3075 14.1478C14.2303 14.225 14.1721 14.3191 14.1376 14.4226L13.1432 17.4058C13.0589 17.6584 13.1247 17.937 13.3131 18.1253C13.5016 18.3139 13.7803 18.3793 14.0326 18.2952L17.0157 17.3008C17.1193 17.2663 17.2134 17.2081 17.2905 17.1309L17.3759 17.0456V21.8906ZM15.799 14.645L16.7933 15.6394L16.4135 16.0192L14.922 16.5164L15.4191 15.0248L15.799 14.645ZM17.7875 14.6448L16.7931 13.6504C17.3226 13.1205 19.6743 10.7668 20.1731 10.2676L21.1674 11.262L17.7875 14.6448ZM22.8862 9.54178L22.1614 10.2672L21.1671 9.27286L21.8921 8.54719C22.1664 8.27302 22.6124 8.27306 22.8865 8.54719C23.1606 8.82141 23.1621 9.26592 22.8862 9.54178Z" fill="currentColor"/>
<path d="M13.8602 7.03125H4.01648C3.62817 7.03125 3.31335 7.34606 3.31335 7.73438C3.31335 8.12269 3.62817 8.4375 4.01648 8.4375H13.8602C14.2485 8.4375 14.5634 8.12269 14.5634 7.73438C14.5634 7.34606 14.2485 7.03125 13.8602 7.03125Z" fill="currentColor"/>
<path d="M11.0477 9.84375H4.01648C3.62817 9.84375 3.31335 10.1586 3.31335 10.5469C3.31335 10.9352 3.62817 11.25 4.01648 11.25H11.0477C11.436 11.25 11.7509 10.9352 11.7509 10.5469C11.7509 10.1586 11.436 9.84375 11.0477 9.84375Z" fill="currentColor"/>
<path d="M11.0477 12.6562H4.01648C3.62817 12.6562 3.31335 12.9711 3.31335 13.3594C3.31335 13.7477 3.62817 14.0625 4.01648 14.0625H11.0477C11.436 14.0625 11.7509 13.7477 11.7509 13.3594C11.7509 12.9711 11.436 12.6562 11.0477 12.6562Z" fill="currentColor"/>
<path d="M11.0477 15.4688H4.01648C3.62817 15.4688 3.31335 15.7836 3.31335 16.1719C3.31335 16.5602 3.62817 16.875 4.01648 16.875H11.0477C11.436 16.875 11.7509 16.5602 11.7509 16.1719C11.7509 15.7836 11.436 15.4688 11.0477 15.4688Z" fill="currentColor"/>
<path d="M13.8602 19.7812H9.64148C9.25317 19.7812 8.93835 20.0961 8.93835 20.4844C8.93835 20.8727 9.25317 21.1875 9.64148 21.1875H13.8602C14.2485 21.1875 14.5634 20.8727 14.5634 20.4844C14.5634 20.0961 14.2485 19.7812 13.8602 19.7812Z" fill="currentColor"/>
</g>
<defs>
<clipPath id="clip0_749_9688">
<rect width="24" height="24" fill="white" transform="translate(0.5)"/>
</clipPath>
</defs>
</svg>
